# xmcd CD database file
#
# Track frame offsets:
#	150
#	14524
#	31009
#	46839
#	68828
#	85523
#	105880
#	123081
#	143220
#	165295
#
# Disc length: 2437 seconds
#
# Revision: 0
# Processed by: cddbd v1.5.2PL0 Copyright (c) Steve Scherf et al.
# Submitted via: CDex 1.51
#
DISCID=6709830a
DTITLE=George Ensle with the Groove Angels Ensemble - Live Set
DYEAR=2006
DGENRE=Country
TTITLE0=Uncle Jack
TTITLE1=State of Grace
TTITLE2=The Troubadour (Song for Townes)
TTITLE3=Saving Me
TTITLE4=Circuit Preacher
TTITLE5=Blue Love
TTITLE6=Simple Pleasures
TTITLE7=Cantas Con Tu Corazon
TTITLE8=She Blooms Wherever She's Planted
TTITLE9=Coming Back Around
EXTD=YEAR: 2006
EXTT0=
EXTT1=
EXTT2=
EXTT3=
EXTT4=
EXTT5=
EXTT6=
EXTT7=
EXTT8=
EXTT9=
PLAYORDER=
